<svg width="731" height="674" viewBox="0 0 731 674" fill="none" xmlns="http://www.w3.org/2000/svg">
<path d="M730.957 612.305C730.957 623.047 725.586 634.603 714.844 646.973C706.055 656.413 699.056 661.133 693.848 661.133C693.197 661.133 690.918 660.482 687.012 659.18L678.223 665.039C671.061 670.573 665.365 673.34 661.133 673.34L653.32 672.363L654.297 660.156L658.203 632.324L657.227 612.305L666.016 553.223L661.133 527.344L658.203 470.215L655.273 450.195L656.25 401.367L654.297 369.141L656.25 350.098L648.926 287.109L655.273 274.414L646.973 270.996V259.277L640.137 229.98L641.113 202.148L636.23 190.43L624.023 193.359L620.117 199.219L622.07 213.379L596.191 252.441L595.215 263.184L586.914 270.996L582.031 284.18L575.195 294.434L572.266 312.012L559.082 341.309L557.129 352.051C546.387 360.84 539.062 368.815 535.156 375.977L519.043 412.109L475.098 487.305L443.848 545.41L436.035 557.129L407.227 583.984C403.646 586.914 401.855 589.681 401.855 592.285C401.855 592.285 402.018 592.448 402.344 592.773C402.669 593.099 402.995 593.587 403.32 594.238C405.273 602.051 406.25 607.096 406.25 609.375L405.273 614.258C399.089 615.234 394.531 617.188 391.602 620.117C388.997 622.721 386.556 627.116 384.277 633.301C380.046 644.694 376.465 652.669 373.535 657.227C370.931 661.458 367.35 664.714 362.793 666.992C358.561 669.271 352.051 671.387 343.262 673.34C334.798 663.9 329.915 657.715 328.613 654.785C327.311 651.855 326.172 646.973 325.195 640.137L321.289 636.23C321.289 629.395 317.22 624.023 309.082 620.117L305.176 624.023L297.852 611.328L286.133 579.102L275.879 565.43L265.137 535.156L252.93 517.09C257.161 509.277 259.277 501.953 259.277 495.117C259.277 489.909 258.138 486.328 255.859 484.375L240.234 471.191L179.199 350.098L164.062 318.359H165.039L167.969 305.176L160.156 289.062L157.227 274.414L146.973 279.297L141.113 269.043C131.022 251.79 124.674 239.909 122.07 233.398C119.466 226.888 116.211 217.122 112.305 204.102C103.841 204.102 98.4701 201.497 96.1914 196.289L88.8672 212.402H81.0547L79.1016 216.309C83.6589 223.145 85.9375 229.818 85.9375 236.328L83.0078 273.438C82.6823 279.297 82.194 284.017 81.543 287.598C81.2174 290.853 80.4036 293.457 79.1016 295.41C78.125 297.038 75.8464 300.293 72.2656 305.176L83.9844 329.102L82.0312 341.309L81.0547 375.977L78.125 396.973L81.0547 502.441L75.1953 518.066C79.7526 527.507 82.0312 536.947 82.0312 546.387V550.293V556.152C73.5677 557.129 68.0339 559.245 65.4297 562.5C62.8255 565.755 61.0352 572.266 60.0586 582.031L78.125 588.379L79.1016 599.121V610.352C79.1016 620.117 77.7995 626.139 75.1953 628.418L38.0859 653.32L20.0195 667.969L13.1836 669.434L2.92969 667.969L1.95312 662.109L0 653.32L9.27734 630.371V583.008L17.0898 524.414L16.1133 493.164L15.1367 482.422L17.0898 467.285L16.1133 455.078C20.9961 451.497 23.9258 446.126 24.9023 438.965L30.2734 436.035C29.2969 429.85 28.1576 425.944 26.8555 424.316L20.9961 412.109C20.9961 410.482 20.8333 409.18 20.5078 408.203C20.5078 407.227 20.3451 406.25 20.0195 405.273C20.0195 400.391 22.7865 395.02 28.3203 389.16C22.7865 379.72 20.0195 371.419 20.0195 364.258V361.328L22.9492 301.27L20.0195 249.023L20.9961 238.281L37.1094 243.164C40.3646 238.932 41.9922 235.352 41.9922 232.422V229.004L20.0195 227.051L18.0664 203.125L34.1797 202.148L36.1328 192.383C36.1328 186.523 31.4128 181.803 21.9727 178.223L17.0898 151.367H21.9727L22.9492 145.02L15.1367 97.168L16.1133 74.2188L7.32422 55.1758C7.32422 48.6654 13.1836 42.6432 24.9023 37.1094L34.1797 39.0625L40.0391 26.3672L50.293 21.9727L72.2656 5.37109C77.1484 1.79036 81.3802 0 84.9609 0L95.2148 2.44141C95.5404 8.6263 96.5169 13.1836 98.1445 16.1133C100.098 18.7174 104.004 21.4844 109.863 24.4141C110.514 28.6458 111.491 32.5521 112.793 36.1328C114.095 39.388 116.211 43.457 119.141 48.3398C122.396 53.2227 126.79 60.2214 132.324 69.3359L127.93 80.0781L123.047 96.1914L125 102.051L140.137 109.375L151.855 145.996L142.09 161.133L147.949 164.062L151.855 174.316C161.621 174.967 169.759 180.99 176.27 192.383L191.895 227.051L209.961 278.32C201.497 285.807 197.266 291.829 197.266 296.387L202.148 308.105L212.891 309.082C218.424 309.733 222.005 310.872 223.633 312.5C225.26 314.128 227.051 317.708 229.004 323.242L220.215 337.402C223.796 341.96 227.051 344.238 229.98 344.238H235.84L242.188 353.027C254.883 376.79 261.23 391.113 261.23 395.996L257.324 411.133L253.906 422.363L263.184 427.246L272.949 429.199L284.18 444.336L303.223 464.355L308.105 483.398L318.848 493.164L332.031 525.391L343.262 537.109L358.887 568.359L367.188 575.195L378.906 563.965L414.062 524.414L432.129 493.164L448.242 463.379L472.168 422.363L517.09 317.383L535.156 290.039L540.039 259.277L564.941 203.125L568.848 187.988L575.195 186.035L581.055 181.152V177.246L588.867 173.34L587.891 165.039L579.102 161.133C581.706 147.461 584.961 139.486 588.867 137.207L598.145 133.301L606.934 125.977C603.027 119.141 598.145 111.816 592.285 104.004C597.493 96.8424 600.098 90.9831 600.098 86.4258C600.098 84.1471 599.772 82.3568 599.121 81.0547L607.91 71.2891L623.047 48.3398L651.855 24.4141C664.225 13.6719 671.712 8.30078 674.316 8.30078L686.035 11.2305L683.105 44.4336L687.012 48.3398L696.289 47.3633C705.404 47.3633 709.961 49.9674 709.961 55.1758L708.984 74.2188L705.078 90.332L699.219 88.3789L697.266 97.168L704.102 115.234L706.055 219.238V224.121C706.055 229.329 704.753 233.724 702.148 237.305L688.965 255.371C687.663 256.673 687.012 260.579 687.012 267.09C689.616 270.996 692.22 273.6 694.824 274.902C697.428 275.879 701.497 276.367 707.031 276.367L708.008 294.434L706.055 375L713.867 410.156L718.262 471.191L722.168 512.207C722.168 517.741 720.866 524.414 718.262 532.227C722.493 537.435 725.098 541.829 726.074 545.41C727.051 548.991 728.027 558.268 729.004 573.242L730.957 611.328V612.305Z" fill="black"/>
</svg>
